<svg width="532" height="284" fill="none" xmlns="http://www.w3.org/2000/svg"><path d="M60.895 244.007c7.542 0 13.085-3.932 13.085-12.699v-33.131h-9.024v32.809c0 3.545-2.256 4.899-5.286 4.899-1.74 0-3.222-.387-4.125-1.031l-3.416 7.412c1.805 1.096 5.221 1.741 8.766 1.741zm33.824.129c5.995 0 9.024-2.514 10.829-6.317v5.479h8.444v-33.519h-8.637v5.286c-1.805-3.61-4.835-5.995-10.636-5.995-9.217 0-16.566 7.929-16.566 17.597 0 9.669 7.349 17.469 16.566 17.469zm-7.864-17.533c0-5.221 3.739-9.669 9.282-9.669 5.737 0 9.411 4.512 9.411 9.733 0 5.222-3.674 9.605-9.41 9.605-5.544 0-9.283-4.577-9.283-9.669zm42.75 16.695h8.766l13.923-33.519h-10.12l-6.704 19.144c-.58 1.612-1.095 3.61-1.418 5.35-.322-1.74-.838-3.738-1.418-5.35l-6.704-19.144h-10.313l13.988 33.519zm37.441.838c5.994 0 9.024-2.514 10.829-6.317v5.479h8.444v-33.519h-8.638v5.286c-1.805-3.61-4.834-5.995-10.635-5.995-9.218 0-16.566 7.929-16.566 17.597 0 9.669 7.348 17.469 16.566 17.469zm-7.864-17.533c0-5.221 3.738-9.669 9.282-9.669 5.737 0 9.411 4.512 9.411 9.733 0 5.222-3.674 9.605-9.411 9.605-5.544 0-9.282-4.577-9.282-9.669zm43.527 16.695h9.024v-16.373h6.188c10.12 0 16.308-4.963 16.308-14.503 0-9.475-6.188-14.245-16.308-14.245h-15.212v45.121zm9.024-24.494v-12.57h5.672c4.899 0 7.671 1.998 7.671 6.253 0 4.318-2.772 6.317-7.671 6.317h-5.672zm25.708 24.494h8.701v-17.146c0-5.608 3.868-8.96 8.896-8.96h1.224v-8.186c-5.801-.322-9.217 2.32-10.377 7.155v-6.382h-8.444v33.519zm36.646.838c10.377 0 17.854-7.864 17.854-17.533s-7.477-17.597-17.854-17.597c-10.378 0-17.855 7.928-17.855 17.597s7.477 17.533 17.855 17.533zm-9.153-17.533c0-5.221 3.609-9.669 9.153-9.669 5.543 0 9.153 4.448 9.153 9.669s-3.61 9.604-9.153 9.604c-5.544 0-9.153-4.383-9.153-9.604zm46.852 30.424c10.249 0 17.468-6.381 17.468-16.694v-30.554h-8.573v4.577c-1.74-3.287-4.705-5.415-10.249-5.415-9.217 0-16.243 7.606-16.243 17.275 0 9.669 7.026 17.275 16.243 17.275 5.415 0 8.316-2.063 10.12-5.157v1.483c0 5.35-4.061 9.153-8.702 9.153-4.189 0-7.541-1.031-10.7-4.641l-5.414 6.381c3.996 4.706 9.282 6.317 16.05 6.317zm-8.895-30.811c0-5.221 3.287-9.346 8.959-9.346 5.737 0 9.089 4.125 9.089 9.346s-3.352 9.347-9.089 9.347c-5.672 0-8.959-4.255-8.959-9.347zm31.489 17.082h8.701v-17.146c0-5.608 3.868-8.96 8.896-8.96h1.224v-8.186c-5.801-.322-9.217 2.32-10.377 7.155v-6.382h-8.444v33.519zm35.356.838c5.995 0 9.025-2.514 10.829-6.317v5.479h8.444v-33.519h-8.637v5.286c-1.805-3.61-4.834-5.995-10.636-5.995-9.217 0-16.565 7.929-16.565 17.597 0 9.669 7.348 17.469 16.565 17.469zm-7.863-17.533c0-5.221 3.738-9.669 9.281-9.669 5.737 0 9.411 4.512 9.411 9.733 0 5.222-3.674 9.605-9.411 9.605-5.543 0-9.281-4.577-9.281-9.669zm32.307 16.695h8.702v-18.371c0-5.801 3.287-8.315 6.961-8.315 4.319 0 7.219 2.514 7.219 8.315v18.371h8.702v-18.371c0-6.446 2.772-8.315 6.833-8.315 3.932 0 6.703 2.514 6.703 8.315v18.371h8.702V222.8c0-8.444-5.543-13.794-12.762-13.794-5.866 0-9.089 2.256-11.345 6.317-2.192-4.061-6.188-6.317-10.894-6.317-5.156 0-8.508 1.934-10.248 5.672v-4.899h-8.573v33.519zm70.14.838c7.413 0 13.021-4.641 13.021-10.829 0-5.028-2.256-8.638-11.989-11.152-3.997-1.031-4.513-2.062-4.513-3.223 0-2.062 1.805-2.965 4.19-2.965 2.256 0 4.319 1.032 5.93 3.61l6.317-4.834c-3.416-4.448-7.026-5.802-12.44-5.802-7.864 0-12.505 4.384-12.505 10.249 0 4.254 1.354 8.315 10.313 10.442 5.286 1.225 6.124 2.192 6.124 3.932 0 1.999-1.676 3.481-4.641 3.481-2.836 0-5.415-1.353-7.864-4.125l-5.866 5.35c3.674 3.932 8.251 5.866 13.923 5.866z" fill="#fff"/><g filter="url(#prefix__filter0_d_5_61)"><path fill-rule="evenodd" clip-rule="evenodd" d="M218.87 28h93.106c6.922 0 12.534 5.611 12.534 12.533v82.779c0 4.693-2.622 8.993-6.794 11.142l-46.553 23.982a12.537 12.537 0 01-11.48 0l-46.553-23.982a12.533 12.533 0 01-6.793-11.142V40.533c0-6.922 5.611-12.533 12.533-12.533zm25.492 83.393h3.693v-5.269h-.935c-2.068 0-3.201-1.231-3.201-2.856v-7.484c0-4.382-2.511-6.549-5.712-7.337 3.201-.738 5.712-2.905 5.712-7.287v-7.435c0-1.625 1.133-2.856 3.201-2.856h.935v-5.268h-3.693c-4.333 0-6.795 3.15-6.795 7.73v7.632c0 3.348-1.329 4.038-5.268 4.333v6.401c3.791.296 5.268.886 5.268 4.333v7.632c0 4.579 2.462 7.731 6.795 7.731zm10.204-9.208c2.561 0 4.383-1.969 4.383-4.333 0-2.314-1.822-4.284-4.383-4.284-2.56 0-4.431 1.97-4.431 4.284 0 2.364 1.871 4.333 4.431 4.333zm15.346-4.333c0 2.364-1.822 4.333-4.382 4.333-2.561 0-4.432-1.969-4.432-4.333 0-2.314 1.871-4.284 4.432-4.284 2.56 0 4.382 1.97 4.382 4.284zm6.581 4.333c2.56 0 4.382-1.969 4.382-4.333 0-2.314-1.822-4.284-4.382-4.284-2.56 0-4.431 1.97-4.431 4.284 0 2.364 1.871 4.333 4.431 4.333zm16.921 1.477c0 4.579-2.462 7.731-6.795 7.731h-3.693v-5.269h.936c2.068 0 3.2-1.231 3.2-2.856v-7.484c0-4.382 2.512-6.549 5.712-7.337-3.2-.738-5.712-2.905-5.712-7.287v-7.435c0-1.625-1.132-2.856-3.2-2.856h-.936v-5.268h3.693c4.333 0 6.795 3.15 6.795 7.73v7.632c0 3.348 1.33 4.038 5.269 4.333v6.401c-3.792.296-5.269.886-5.269 4.333v7.632z" fill="url(#prefix__paint0_linear_5_61)"/></g><defs><linearGradient id="prefix__paint0_linear_5_61" x1="206.337" y1="28" x2="324.51" y2="161.393" gradientUnits="userSpaceOnUse"><stop stop-color="#FFDF52"/><stop offset="1" stop-color="#FF7A00"/></linearGradient><filter id="prefix__filter0_d_5_61" x="183.06" y="8.304" width="164.726" height="178.38" filterUnits="userSpaceOnUse" color-interpolation-filters="sRGB"><feFlood flood-opacity="0" result="BackgroundImageFix"/><feColorMatrix in="SourceAlpha" values="0 0 0 0 0 0 0 0 0 0 0 0 0 0 0 0 0 0 127 0" result="hardAlpha"/><feOffset dy="3.581"/><feGaussianBlur stdDeviation="11.638"/><feComposite in2="hardAlpha" operator="out"/><feColorMatrix values="0 0 0 0 1 0 0 0 0 0.654902 0 0 0 0 0.141176 0 0 0 0.15 0"/><feBlend in2="BackgroundImageFix" result="effect1_dropShadow_5_61"/><feBlend in="SourceGraphic" in2="effect1_dropShadow_5_61" result="shape"/></filter></defs></svg>